<?xml version="1.0" encoding="UTF-8"?>
<svg width="45px" height="43px" viewBox="0 0 45 43" version="1.1" xmlns="http://www.w3.org/2000/svg" xmlns:xlink="http://www.w3.org/1999/xlink">
    <title>Twitter Love icon</title>
    <desc>Twitter Love icon</desc>
    <defs></defs>
    <g id="Page-1" stroke="none" stroke-width="1" fill="none" fill-rule="evenodd">
        <g id="Love" stroke="#657786" stroke-width="3">
            <path d="M22.7505591,41.4988585 C22.7946821,41.4929039 22.9146378,41.46388 23.0728047,41.4087472 C23.2095557,41.3610795 23.3617094,41.2991241 23.523681,41.2258933 C23.6626365,41.1630686 23.8019417,41.0951541 23.9434204,41.0224037 C24.0303882,40.9776836 24.1077397,40.9365862 24.2196799,40.8767663 C35.3864658,34.9985547 42.1018557,26.2800178 43.4087053,15.0520828 C44.0205263,9.79555881 41.5468174,5.16792437 37.464317,3.27017923 C33.1913408,1.28389164 28.1113759,2.67387073 23.9034823,7.72967247 L22.7505591,9.11491455 L21.5976358,7.72967247 C17.3897422,2.67387073 12.3097774,1.28389164 8.03680117,3.27017923 C3.95430079,5.16792437 1.48059185,9.79555881 2.09241285,15.0520828 C3.39926249,26.2800178 10.1146524,34.9985547 21.2814382,40.8767663 C21.3933784,40.9365862 21.47073,40.9776836 21.5576978,41.0224037 C21.6991765,41.0951541 21.8384817,41.1630686 21.9774372,41.2258933 C22.1394087,41.2991241 22.2915625,41.3610795 22.4283135,41.4087472 C22.5864804,41.46388 22.7064361,41.4929039 22.7505591,41.4988585 Z" id="Combined-Shape"></path>
        </g>
    </g>
</svg>