<?xml version="1.0" encoding="UTF-8"?>
<svg width="54px" height="38px" viewBox="0 0 54 38" version="1.1" xmlns="http://www.w3.org/2000/svg" xmlns:xlink="http://www.w3.org/1999/xlink">
    <title>Twitter Retweet icon</title>
    <desc>Twitter Retweet icon</desc>
    <defs></defs>
    <g id="Page-1" stroke="none" stroke-width="1" fill="none" fill-rule="evenodd">
        <g id="Retweet" transform="translate(0.000000, -1.000000)">
            <g id="Group" transform="translate(24.000000, 2.000000)">
                <path d="M20.5,32.5314565 C20.5,19.8443027 20.5,11.8380861 20.5,8.51280655 C20.5,3.52488724 17.3484691,0.528707528 12.4434688,0.528707528 C9.17346865,0.528707528 5.19487412,0.528707528 0.507685229,0.528707528" id="Line-2" stroke="#657786" stroke-width="3" stroke-linecap="round" stroke-linejoin="round"></path>
                <path d="M20.5,37 C20.8838835,37 21.267767,36.8535534 21.5606602,36.5606602 L29.5606602,28.5606602 C30.1464466,27.9748737 30.1464466,27.0251263 29.5606602,26.4393398 C28.9748737,25.8535534 28.0251263,25.8535534 27.4393398,26.4393398 L20.5,33.3786797 L13.5606602,26.4393398 C12.9748737,25.8535534 12.0251263,25.8535534 11.4393398,26.4393398 C10.8535534,27.0251263 10.8535534,27.9748737 11.4393398,28.5606602 L19.4393398,36.5606602 C19.732233,36.8535534 20.1161165,37 20.5,37 Z" id="Combined-Shape" fill="#657786"></path>
            </g>
            <g id="Group" transform="translate(15.000000, 19.000000) scale(-1, -1) translate(-15.000000, -19.000000) ">
                <path d="M20.5,32.4637064 C20.5,19.8217194 20.5,11.8380861 20.5,8.51280655 C20.5,3.52488724 17.3484691,0.528707528 12.4434688,0.528707528 C9.17346865,0.528707528 5.19487412,0.528707528 0.507685229,0.528707528" id="Line-2" stroke="#657786" stroke-width="3" stroke-linecap="round" stroke-linejoin="round"></path>
                <path d="M20.5,37 C20.8838835,37 21.267767,36.8535534 21.5606602,36.5606602 L29.5606602,28.5606602 C30.1464466,27.9748737 30.1464466,27.0251263 29.5606602,26.4393398 C28.9748737,25.8535534 28.0251263,25.8535534 27.4393398,26.4393398 L20.5,33.3786797 L13.5606602,26.4393398 C12.9748737,25.8535534 12.0251263,25.8535534 11.4393398,26.4393398 C10.8535534,27.0251263 10.8535534,27.9748737 11.4393398,28.5606602 L19.4393398,36.5606602 C19.732233,36.8535534 20.1161165,37 20.5,37 Z" id="Combined-Shape" fill="#657786"></path>
            </g>
        </g>
    </g>
</svg>