<?xml version="1.0" encoding="UTF-8"?>
<svg width="44px" height="44px" viewBox="0 0 44 44" version="1.1" xmlns="http://www.w3.org/2000/svg" xmlns:xlink="http://www.w3.org/1999/xlink">
    <title>Twitter Reply icon</title>
    <desc>Twitter Reply icon</desc>
    <defs></defs>
    <g id="Page-1" stroke="none" stroke-width="1" fill="none" fill-rule="evenodd">
        <g id="Reply" stroke-width="3" stroke="#657786">
            <path d="M42.4482666,17.7603134 L42.4505162,17.7282476 C42.4834419,17.3214166 42.5,16.9117953 42.5,16.5 C42.5,8.21572875 35.7842712,1.5 27.5,1.5 L16.5,1.5 C8.21572875,1.5 1.5,8.21572875 1.5,16.5 C1.5,24.7817139 8.21175755,31.4962962 16.4931328,31.4999985 L17.9924622,31.5006688 L17.9924622,41.9969482 C17.9924622,42.0095171 17.9910364,42.0076662 18.1080965,42.0534748 C18.3672198,42.1548763 18.7497539,42.1368611 19.0973288,41.9718485 C19.9581531,41.5631686 24.5233734,38.4263666 32.4228179,32.7929274 C36.0341211,30.3412104 38.3926435,28.204913 39.4833458,26.4553179 C41.3093622,23.5262059 42.2618986,20.898048 42.4482666,17.7603134 Z"></path>
        </g>
    </g>
</svg>